

<svg version="1.1" id="Layer_1" xmlns="http://www.w3.org/2000/svg" xmlns:xlink="http://www.w3.org/1999/xlink" x="0px" y="0px"
	 width="100%" viewBox="0 0 1200 1200" enable-background="new 0 0 1200 1200" xml:space="preserve">
<path fill="#000000" opacity="1.000000" stroke="none" 
	d="
M767.000000,1201.000000 
	C511.333344,1201.000000 256.166656,1201.000000 1.000000,1201.000000 
	C1.000000,801.000000 1.000000,401.000000 1.000000,1.000000 
	C401.000000,1.000000 801.000000,1.000000 1201.000000,1.000000 
	C1201.000000,401.000000 1201.000000,801.000000 1201.000000,1201.000000 
	C1056.500000,1201.000000 912.000000,1201.000000 767.000000,1201.000000 
M600.500061,297.141235 
	C538.967834,297.399567 478.203278,304.138336 418.446716,319.049408 
	C356.226013,334.575439 297.155151,357.685486 243.385941,393.146667 
	C202.029999,420.421143 166.130081,453.299408 140.659927,496.366882 
	C111.495895,545.680359 102.469070,598.107056 118.164948,653.793518 
	C129.833115,695.190247 153.188644,729.683289 183.211075,759.882507 
	C219.709641,796.596069 262.732635,823.800842 309.619293,845.105103 
	C392.128357,882.595337 479.236908,900.153687 569.369690,903.912842 
	C639.984863,906.858032 709.801453,900.514709 778.568054,883.928833 
	C840.738159,868.933899 899.840637,846.323425 953.891602,811.644470 
	C995.135315,785.182556 1031.268311,753.239319 1057.576172,711.384521 
	C1090.054688,659.712585 1100.527344,604.368896 1082.841553,545.114929 
	C1069.525391,500.500763 1043.003052,464.216370 1009.292053,432.869781 
	C967.147705,393.681305 917.953491,365.923859 864.726440,344.973663 
	C780.160034,311.688385 692.039185,297.695190 600.500061,297.141235 
z"/>
<path fill="#FBFBFB" opacity="1.000000" stroke="none" 
	d="
M601.000122,297.141235 
	C692.039185,297.695190 780.160034,311.688385 864.726440,344.973663 
	C917.953491,365.923859 967.147705,393.681305 1009.292053,432.869781 
	C1043.003052,464.216370 1069.525391,500.500763 1082.841553,545.114929 
	C1100.527344,604.368896 1090.054688,659.712585 1057.576172,711.384521 
	C1031.268311,753.239319 995.135315,785.182556 953.891602,811.644470 
	C899.840637,846.323425 840.738159,868.933899 778.568054,883.928833 
	C709.801453,900.514709 639.984863,906.858032 569.369690,903.912842 
	C479.236908,900.153687 392.128357,882.595337 309.619293,845.105103 
	C262.732635,823.800842 219.709641,796.596069 183.211075,759.882507 
	C153.188644,729.683289 129.833115,695.190247 118.164948,653.793518 
	C102.469070,598.107056 111.495895,545.680359 140.659927,496.366882 
	C166.130081,453.299408 202.029999,420.421143 243.385941,393.146667 
	C297.155151,357.685486 356.226013,334.575439 418.446716,319.049408 
	C478.203278,304.138336 538.967834,297.399567 601.000122,297.141235 
M165.952469,716.508484 
	C173.268631,725.360596 180.161728,734.606628 187.974258,742.996521 
	C221.692398,779.206543 262.272003,805.912231 306.665527,827.039795 
	C386.082642,864.835571 470.382507,882.908936 557.737366,887.885010 
	C632.539368,892.146057 706.491943,885.883179 779.328918,867.970520 
	C837.988647,853.544495 893.813171,832.107788 944.960876,799.526611 
	C984.003235,774.656555 1018.365845,744.684509 1043.471069,705.303467 
	C1075.247314,655.458008 1085.170166,602.081604 1066.722778,544.998596 
	C1052.593872,501.278961 1025.193115,466.471069 991.045532,436.618927 
	C951.223206,401.805939 905.501343,376.937195 856.411804,357.991760 
	C787.011230,331.207550 714.883118,317.509796 640.739746,313.783508 
	C557.578308,309.603973 475.764160,317.812500 395.671631,341.046997 
	C336.931763,358.087158 281.638275,382.514709 232.322357,419.250275 
	C198.559158,444.400513 169.677979,474.067474 149.568268,511.470428 
	C130.349991,547.215393 122.111389,585.120300 127.887772,625.669006 
	C132.639038,659.021667 146.133774,688.697815 165.952469,716.508484 
z"/>
<path fill="#010101" opacity="1.000000" stroke="none" 
	d="
M165.750015,716.213135 
	C146.133774,688.697815 132.639038,659.021667 127.887772,625.669006 
	C122.111389,585.120300 130.349991,547.215393 149.568268,511.470428 
	C169.677979,474.067474 198.559158,444.400513 232.322357,419.250275 
	C281.638275,382.514709 336.931763,358.087158 395.671631,341.046997 
	C475.764160,317.812500 557.578308,309.603973 640.739746,313.783508 
	C714.883118,317.509796 787.011230,331.207550 856.411804,357.991760 
	C905.501343,376.937195 951.223206,401.805939 991.045532,436.618927 
	C1025.193115,466.471069 1052.593872,501.278961 1066.722778,544.998596 
	C1085.170166,602.081604 1075.247314,655.458008 1043.471069,705.303467 
	C1018.365845,744.684509 984.003235,774.656555 944.960876,799.526611 
	C893.813171,832.107788 837.988647,853.544495 779.328918,867.970520 
	C706.491943,885.883179 632.539368,892.146057 557.737366,887.885010 
	C470.382507,882.908936 386.082642,864.835571 306.665527,827.039795 
	C262.272003,805.912231 221.692398,779.206543 187.974258,742.996521 
	C180.161728,734.606628 173.268631,725.360596 165.750015,716.213135 
M707.142334,560.662842 
	C705.769531,556.559814 703.353943,553.549500 698.703003,553.342407 
	C693.681335,553.118835 688.977478,553.863892 686.367249,558.994873 
	C684.634949,562.399902 682.802490,565.763855 681.264832,569.256287 
	C675.450378,582.462219 670.033203,595.851440 663.915955,608.913818 
	C655.387756,627.124084 645.001221,644.196350 629.342407,657.279663 
	C624.966736,660.935608 619.759399,663.874390 614.496399,666.115540 
	C608.731506,668.570496 604.284058,666.213562 602.440430,660.244385 
	C601.177979,656.157166 600.369019,651.793579 600.212952,647.522339 
	C598.929749,612.394348 609.227356,580.280762 626.086792,549.939636 
	C628.006348,546.485168 627.851868,543.343811 625.334106,540.262939 
	C620.436035,534.269409 614.338867,534.012512 606.723633,538.771179 
	C591.394409,548.350159 575.878357,557.630066 560.313354,567.110046 
	C559.785583,566.169861 559.376526,565.629944 559.156067,565.021606 
	C544.172363,523.674438 504.878357,508.709137 465.422058,525.767090 
	C432.678650,539.922791 418.930756,568.328430 412.962006,601.483643 
	C410.129028,617.220520 411.171082,632.944397 415.014374,648.903320 
	C409.420624,647.395447 405.739166,649.984375 402.513031,653.555847 
	C397.982666,658.571228 392.496033,661.729492 385.714905,662.500000 
	C376.080139,663.594666 370.424713,657.670044 372.643585,648.339172 
	C374.525574,640.425232 376.436829,632.450439 379.246277,624.838806 
	C385.286377,608.474365 391.958252,592.344055 398.285553,576.084473 
	C403.012970,563.936218 406.945984,551.606018 406.156708,538.289062 
	C405.617859,529.197815 401.622223,522.096497 393.166046,518.627991 
	C388.369476,516.660522 382.891449,515.528564 377.705933,515.477295 
	C354.548615,515.248291 338.221375,527.479736 325.448761,545.497864 
	C321.832733,550.598938 318.757446,556.083374 315.434174,561.391968 
	C315.097015,559.515503 315.422821,557.817200 315.721069,556.114075 
	C317.187469,547.739990 318.747070,539.401794 316.563232,530.867126 
	C314.247833,521.818176 308.712799,516.554138 299.430389,515.067871 
	C275.696594,511.267761 250.532639,528.746155 243.889709,553.744141 
	C239.905121,568.738525 243.499588,573.786377 258.905823,574.811707 
	C259.220734,574.832642 259.547119,574.680664 259.864380,574.603577 
	C262.521942,568.003906 264.492950,561.004944 268.033203,554.918640 
	C271.469421,549.011169 276.150299,543.679138 280.983734,538.784790 
	C284.241119,535.486328 289.178375,534.480896 293.569458,536.569092 
	C297.905212,538.631104 298.480194,543.405579 298.131744,547.469482 
	C297.523987,554.558289 297.105133,561.980225 294.662109,568.537903 
	C285.793396,592.343689 276.238892,615.897888 266.703369,639.449951 
	C260.474823,654.833984 253.832230,670.050354 247.424698,685.224426 
	C256.851807,693.494263 272.733002,691.038147 277.753357,680.228882 
	C288.465027,657.165588 298.673340,633.868103 309.046173,610.648010 
	C316.926514,593.007385 325.054260,575.479614 337.075653,560.178223 
	C345.769104,549.112915 356.649475,541.698608 371.429016,541.755310 
	C377.969635,541.780396 381.629059,545.758728 380.778259,552.316589 
	C380.373779,555.434204 379.844025,558.638245 378.700714,561.538879 
	C374.558594,572.047485 370.246643,582.493103 365.788177,592.872070 
	C358.110413,610.745300 350.322510,628.529846 346.358032,647.754944 
	C341.162567,672.949524 357.237183,683.981079 372.949493,686.030029 
	C385.591766,687.678711 397.185455,684.292114 406.816956,675.820190 
	C411.549347,671.657532 415.507721,666.614990 419.776123,662.014038 
	C429.669159,683.600342 445.568878,697.764099 470.234375,700.295044 
	C500.953461,703.447266 525.989136,692.988831 544.047974,667.839783 
	C560.312927,645.188904 566.098694,619.383606 564.473206,591.742310 
	C564.393127,590.379639 564.505615,588.264343 565.337524,587.706909 
	C571.874146,583.327332 578.608154,579.242310 586.263550,574.451904 
	C585.827942,576.579224 585.714050,577.362122 585.505615,578.119019 
	C582.420471,589.321106 578.737427,600.397400 576.364502,611.747742 
	C572.749756,629.037903 572.619141,646.488647 577.007874,663.765076 
	C581.589600,681.801392 593.442322,691.035583 610.759705,689.665222 
	C615.151917,689.317566 619.679810,688.199951 623.730347,686.466431 
	C638.501404,680.144897 648.640991,668.384583 657.986206,655.917053 
	C662.428223,649.990967 666.348389,643.673645 671.032898,636.753906 
	C671.395447,639.542053 671.490540,641.496948 671.920837,643.375122 
	C674.067810,652.746582 675.439331,662.410645 678.690674,671.389832 
	C685.026733,688.888184 699.442749,694.383423 716.505066,686.805847 
	C729.505737,681.032166 739.426697,671.533142 747.908264,660.415527 
	C766.572266,635.950623 782.328308,609.834106 792.804504,580.737122 
	C793.304138,579.349426 794.477783,577.638123 795.737976,577.180786 
	C805.340759,573.695923 815.043152,570.485718 824.741577,567.180847 
	C824.741577,567.765930 824.757690,568.890625 824.739136,570.014832 
	C824.528259,582.779846 829.402161,593.237915 840.040466,600.231018 
	C849.327209,606.335754 859.219299,611.526123 868.892334,617.035217 
	C880.724426,623.773926 892.852539,630.031250 904.385193,637.244019 
	C912.703613,642.446594 916.007568,650.673340 914.412170,660.573303 
	C912.817017,670.471191 906.361572,676.157837 897.366821,678.846802 
	C880.531616,683.879700 863.448181,683.813232 846.658264,678.794434 
	C831.075256,674.136353 824.940308,658.261169 832.546753,643.908691 
	C833.478271,642.151001 834.475891,640.402222 835.162903,638.545715 
	C837.658386,631.801758 834.808044,627.734131 827.677795,627.706116 
	C815.138672,627.656860 804.243591,637.823608 802.798462,651.219055 
	C801.060974,667.325439 807.800659,679.655457 820.342651,689.202087 
	C829.563110,696.220581 840.117981,700.194031 851.492920,701.672424 
	C876.536560,704.927490 900.947998,703.865173 923.698669,690.927551 
	C952.255920,674.688171 951.514099,634.622803 927.078735,619.156311 
	C922.585266,616.312195 918.132080,613.371277 913.454590,610.857666 
	C899.102234,603.145081 884.476501,595.922791 870.329712,587.856262 
	C865.316162,584.997498 859.965149,581.054565 857.232300,576.215149 
	C851.238647,565.601501 856.780273,553.665771 869.567322,548.614990 
	C884.375366,542.765930 899.601868,543.264771 914.542236,548.305786 
	C922.070312,550.845764 925.270691,556.621094 924.958923,564.660095 
	C924.731689,570.520447 921.775269,574.997253 917.922424,579.117310 
	C915.147217,582.085083 913.767273,585.636658 915.229980,589.669006 
	C916.814392,594.037109 920.390564,596.593506 924.747314,596.554138 
	C928.365173,596.521484 932.619568,595.752563 935.471863,593.730164 
	C953.764404,580.759827 958.585083,549.384521 934.266113,534.912415 
	C923.692566,528.620117 912.151062,525.986877 899.979675,525.598450 
	C876.820251,524.859375 854.713074,527.687012 836.498230,544.027405 
	C835.766235,544.684082 834.222595,545.346375 833.548645,545.012939 
	C828.303955,542.417664 824.445923,545.085327 820.198975,547.716064 
	C813.698242,551.742920 806.860107,555.225037 799.261780,559.439575 
	C799.906067,552.099731 800.498657,546.513611 800.865662,540.912781 
	C801.524902,530.850098 797.633301,522.716003 789.959045,516.346497 
	C785.226562,512.418640 780.408813,508.591553 775.559509,504.808838 
	C774.846558,504.252686 773.744812,503.940247 772.824402,503.943268 
	C761.274841,503.981201 748.289795,508.471497 741.927612,522.104614 
	C733.671814,539.795410 742.401855,563.247681 760.702576,572.881287 
	C763.290771,574.243713 765.996277,575.383301 769.127930,576.851196 
	C765.278687,585.472961 761.849548,593.943359 757.786255,602.097839 
	C748.028503,621.680115 736.998169,640.500549 721.116211,655.864685 
	C716.897827,659.945557 711.784607,663.316040 706.598328,666.116394 
	C702.177979,668.503235 699.034973,666.897278 696.905762,662.308655 
	C695.940735,660.228882 695.143921,657.928833 694.926880,655.665771 
	C692.405640,629.378113 693.184631,603.527405 703.936890,578.693420 
	C706.214905,573.431885 706.284851,567.214233 707.142334,560.662842 
z"/>
<path fill="#FCFCFC" opacity="1.000000" stroke="none" 
	d="
M707.257202,561.049988 
	C706.284851,567.214233 706.214905,573.431885 703.936890,578.693420 
	C693.184631,603.527405 692.405640,629.378113 694.926880,655.665771 
	C695.143921,657.928833 695.940735,660.228882 696.905762,662.308655 
	C699.034973,666.897278 702.177979,668.503235 706.598328,666.116394 
	C711.784607,663.316040 716.897827,659.945557 721.116211,655.864685 
	C736.998169,640.500549 748.028503,621.680115 757.786255,602.097839 
	C761.849548,593.943359 765.278687,585.472961 769.127930,576.851196 
	C765.996277,575.383301 763.290771,574.243713 760.702576,572.881287 
	C742.401855,563.247681 733.671814,539.795410 741.927612,522.104614 
	C748.289795,508.471497 761.274841,503.981201 772.824402,503.943268 
	C773.744812,503.940247 774.846558,504.252686 775.559509,504.808838 
	C780.408813,508.591553 785.226562,512.418640 789.959045,516.346497 
	C797.633301,522.716003 801.524902,530.850098 800.865662,540.912781 
	C800.498657,546.513611 799.906067,552.099731 799.261780,559.439575 
	C806.860107,555.225037 813.698242,551.742920 820.198975,547.716064 
	C824.445923,545.085327 828.303955,542.417664 833.548645,545.012939 
	C834.222595,545.346375 835.766235,544.684082 836.498230,544.027405 
	C854.713074,527.687012 876.820251,524.859375 899.979675,525.598450 
	C912.151062,525.986877 923.692566,528.620117 934.266113,534.912415 
	C958.585083,549.384521 953.764404,580.759827 935.471863,593.730164 
	C932.619568,595.752563 928.365173,596.521484 924.747314,596.554138 
	C920.390564,596.593506 916.814392,594.037109 915.229980,589.669006 
	C913.767273,585.636658 915.147217,582.085083 917.922424,579.117310 
	C921.775269,574.997253 924.731689,570.520447 924.958923,564.660095 
	C925.270691,556.621094 922.070312,550.845764 914.542236,548.305786 
	C899.601868,543.264771 884.375366,542.765930 869.567322,548.614990 
	C856.780273,553.665771 851.238647,565.601501 857.232300,576.215149 
	C859.965149,581.054565 865.316162,584.997498 870.329712,587.856262 
	C884.476501,595.922791 899.102234,603.145081 913.454590,610.857666 
	C918.132080,613.371277 922.585266,616.312195 927.078735,619.156311 
	C951.514099,634.622803 952.255920,674.688171 923.698669,690.927551 
	C900.947998,703.865173 876.536560,704.927490 851.492920,701.672424 
	C840.117981,700.194031 829.563110,696.220581 820.342651,689.202087 
	C807.800659,679.655457 801.060974,667.325439 802.798462,651.219055 
	C804.243591,637.823608 815.138672,627.656860 827.677795,627.706116 
	C834.808044,627.734131 837.658386,631.801758 835.162903,638.545715 
	C834.475891,640.402222 833.478271,642.151001 832.546753,643.908691 
	C824.940308,658.261169 831.075256,674.136353 846.658264,678.794434 
	C863.448181,683.813232 880.531616,683.879700 897.366821,678.846802 
	C906.361572,676.157837 912.817017,670.471191 914.412170,660.573303 
	C916.007568,650.673340 912.703613,642.446594 904.385193,637.244019 
	C892.852539,630.031250 880.724426,623.773926 868.892334,617.035217 
	C859.219299,611.526123 849.327209,606.335754 840.040466,600.231018 
	C829.402161,593.237915 824.528259,582.779846 824.739136,570.014832 
	C824.757690,568.890625 824.741577,567.765930 824.741577,567.180847 
	C815.043152,570.485718 805.340759,573.695923 795.737976,577.180786 
	C794.477783,577.638123 793.304138,579.349426 792.804504,580.737122 
	C782.328308,609.834106 766.572266,635.950623 747.908264,660.415527 
	C739.426697,671.533142 729.505737,681.032166 716.505066,686.805847 
	C699.442749,694.383423 685.026733,688.888184 678.690674,671.389832 
	C675.439331,662.410645 674.067810,652.746582 671.920837,643.375122 
	C671.490540,641.496948 671.395447,639.542053 671.032898,636.753906 
	C666.348389,643.673645 662.428223,649.990967 657.986206,655.917053 
	C648.640991,668.384583 638.501404,680.144897 623.730347,686.466431 
	C619.679810,688.199951 615.151917,689.317566 610.759705,689.665222 
	C593.442322,691.035583 581.589600,681.801392 577.007874,663.765076 
	C572.619141,646.488647 572.749756,629.037903 576.364502,611.747742 
	C578.737427,600.397400 582.420471,589.321106 585.505615,578.119019 
	C585.714050,577.362122 585.827942,576.579224 586.263550,574.451904 
	C578.608154,579.242310 571.874146,583.327332 565.337524,587.706909 
	C564.505615,588.264343 564.393127,590.379639 564.473206,591.742310 
	C566.098694,619.383606 560.312927,645.188904 544.047974,667.839783 
	C525.989136,692.988831 500.953461,703.447266 470.234375,700.295044 
	C445.568878,697.764099 429.669159,683.600342 419.776123,662.014038 
	C415.507721,666.614990 411.549347,671.657532 406.816956,675.820190 
	C397.185455,684.292114 385.591766,687.678711 372.949493,686.030029 
	C357.237183,683.981079 341.162567,672.949524 346.358032,647.754944 
	C350.322510,628.529846 358.110413,610.745300 365.788177,592.872070 
	C370.246643,582.493103 374.558594,572.047485 378.700714,561.538879 
	C379.844025,558.638245 380.373779,555.434204 380.778259,552.316589 
	C381.629059,545.758728 377.969635,541.780396 371.429016,541.755310 
	C356.649475,541.698608 345.769104,549.112915 337.075653,560.178223 
	C325.054260,575.479614 316.926514,593.007385 309.046173,610.648010 
	C298.673340,633.868103 288.465027,657.165588 277.753357,680.228882 
	C272.733002,691.038147 256.851807,693.494263 247.424698,685.224426 
	C253.832230,670.050354 260.474823,654.833984 266.703369,639.449951 
	C276.238892,615.897888 285.793396,592.343689 294.662109,568.537903 
	C297.105133,561.980225 297.523987,554.558289 298.131744,547.469482 
	C298.480194,543.405579 297.905212,538.631104 293.569458,536.569092 
	C289.178375,534.480896 284.241119,535.486328 280.983734,538.784790 
	C276.150299,543.679138 271.469421,549.011169 268.033203,554.918640 
	C264.492950,561.004944 262.521942,568.003906 259.866272,574.606445 
	C259.547119,574.680664 259.220734,574.832642 258.905823,574.811707 
	C243.499588,573.786377 239.905121,568.738525 243.889709,553.744141 
	C250.532639,528.746155 275.696594,511.267761 299.430389,515.067871 
	C308.712799,516.554138 314.247833,521.818176 316.563232,530.867126 
	C318.747070,539.401794 317.187469,547.739990 315.721069,556.114075 
	C315.422821,557.817200 315.097015,559.515503 315.434174,561.391968 
	C318.757446,556.083374 321.832733,550.598938 325.448761,545.497864 
	C338.221375,527.479736 354.548615,515.248291 377.705933,515.477295 
	C382.891449,515.528564 388.369476,516.660522 393.166046,518.627991 
	C401.622223,522.096497 405.617859,529.197815 406.156708,538.289062 
	C406.945984,551.606018 403.012970,563.936218 398.285553,576.084473 
	C391.958252,592.344055 385.286377,608.474365 379.246277,624.838806 
	C376.436829,632.450439 374.525574,640.425232 372.643585,648.339172 
	C370.424713,657.670044 376.080139,663.594666 385.714905,662.500000 
	C392.496033,661.729492 397.982666,658.571228 402.513031,653.555847 
	C405.739166,649.984375 409.420624,647.395447 415.014374,648.903320 
	C411.171082,632.944397 410.129028,617.220520 412.962006,601.483643 
	C418.930756,568.328430 432.678650,539.922791 465.422058,525.767090 
	C504.878357,508.709137 544.172363,523.674438 559.156067,565.021606 
	C559.376526,565.629944 559.785583,566.169861 560.313354,567.110046 
	C575.878357,557.630066 591.394409,548.350159 606.723633,538.771179 
	C614.338867,534.012512 620.436035,534.269409 625.334106,540.262939 
	C627.851868,543.343811 628.006348,546.485168 626.086792,549.939636 
	C609.227356,580.280762 598.929749,612.394348 600.212952,647.522339 
	C600.369019,651.793579 601.177979,656.157166 602.440430,660.244385 
	C604.284058,666.213562 608.731506,668.570496 614.496399,666.115540 
	C619.759399,663.874390 624.966736,660.935608 629.342407,657.279663 
	C645.001221,644.196350 655.387756,627.124084 663.915955,608.913818 
	C670.033203,595.851440 675.450378,582.462219 681.264832,569.256287 
	C682.802490,565.763855 684.634949,562.399902 686.367249,558.994873 
	C688.977478,553.863892 693.681335,553.118835 698.703003,553.342407 
	C703.353943,553.549500 705.769531,556.559814 707.257202,561.049988 
M518.572021,657.028442 
	C520.072449,654.831055 521.699707,652.708801 523.053162,650.424438 
	C533.927734,632.070740 536.050110,611.897095 535.164490,591.144653 
	C534.619446,578.373901 530.741211,566.637634 523.418945,556.148499 
	C516.976379,546.919495 508.036896,542.198486 496.723145,542.036987 
	C481.625854,541.821411 469.339111,547.792419 459.170532,558.731812 
	C444.814056,574.176575 440.651794,593.305603 439.353088,613.412720 
	C438.244629,630.574585 440.941467,646.949768 450.620056,661.635437 
	C457.697510,672.374329 467.639404,677.678894 480.542084,677.315430 
	C496.290039,676.871826 508.505402,669.708679 518.572021,657.028442 
M775.730164,556.162964 
	C776.829407,547.002869 778.299622,537.861938 778.774902,528.669617 
	C778.898438,526.280334 776.211914,522.011719 774.283875,521.677673 
	C771.720459,521.233582 767.743408,523.048218 765.932861,525.202759 
	C758.901917,533.569641 762.203674,551.403931 771.498779,557.079163 
	C772.434875,557.650696 774.112976,557.006836 775.730164,556.162964 
z"/>
<path fill="#010101" opacity="1.000000" stroke="none" 
	d="
M518.336487,657.296509 
	C508.505402,669.708679 496.290039,676.871826 480.542084,677.315430 
	C467.639404,677.678894 457.697510,672.374329 450.620056,661.635437 
	C440.941467,646.949768 438.244629,630.574585 439.353088,613.412720 
	C440.651794,593.305603 444.814056,574.176575 459.170532,558.731812 
	C469.339111,547.792419 481.625854,541.821411 496.723145,542.036987 
	C508.036896,542.198486 516.976379,546.919495 523.418945,556.148499 
	C530.741211,566.637634 534.619446,578.373901 535.164490,591.144653 
	C536.050110,611.897095 533.927734,632.070740 523.053162,650.424438 
	C521.699707,652.708801 520.072449,654.831055 518.336487,657.296509 
z"/>
<path fill="#080808" opacity="1.000000" stroke="none" 
	d="
M775.588440,556.544983 
	C774.112976,557.006836 772.434875,557.650696 771.498779,557.079163 
	C762.203674,551.403931 758.901917,533.569641 765.932861,525.202759 
	C767.743408,523.048218 771.720459,521.233582 774.283875,521.677673 
	C776.211914,522.011719 778.898438,526.280334 778.774902,528.669617 
	C778.299622,537.861938 776.829407,547.002869 775.588440,556.544983 
z"/>
</svg>